# xmcd
# 
# Track frame offsets:
#     150
#     18345
#     41945
# 
# Disc length: 800
# 
# Revision: 2
# Processed by: cddbd v1.5.2PL0 Copyright (c) Steve Scherf et al.
# Submitted via: fre:ac v1.0.17
# 
DISCID=1f031e03
DTITLE=相川七瀬 - 恋心
DYEAR=1996
DGENRE=JPop
TTITLE0=恋心
TTITLE1=天使のように踊らせて
TTITLE2=恋心  original karaoke
EXTD=
EXTT0=
EXTT1=
EXTT2=
PLAYORDER=
